<svg width="480" height="480" xmlns="http://www.w3.org/2000/svg" xmlns:svg="http://www.w3.org/2000/svg">
 <!-- Created with SVG-edit - http://svg-edit.googlecode.com/ -->
 <g>
  <title>smile</title>
  <path stroke="#000000" fill="#ffffff" stroke-width="5" d="m134.52769,323.70495q108.67227,76.49531 217.09086,0m-193.53824,-151.07963c0,-11.82237 9.35071,-21.40626 20.88543,-21.40626c11.5347,0 20.88543,9.5839 20.88543,21.40626c0,11.82234 -9.35071,21.40624 -20.88543,21.40624c-11.5347,0 -20.88543,-9.5839 -20.88543,-21.40624m128.46852,0c0,-11.82237 9.35071,-21.40626 20.88543,-21.40626c11.5347,0 20.88541,9.5839 20.88541,21.40626c0,11.82234 -9.35071,21.40624 -20.88541,21.40624c-11.53467,0 -20.88543,-9.5839 -20.88543,-21.40624m-243.84884,61.45969l0,0c0,-113.4945 89.76691,-205.5 200.5,-205.5c110.7331,0 200.5,92.00548 200.5,205.5c0,113.49452 -89.76691,205.5 -200.5,205.5c-110.73308,0 -200.5,-92.00548 -200.5,-205.5zm0,0l0,0c0,-113.4945 89.76691,-205.5 200.5,-205.5c110.7331,0 200.5,92.00548 200.5,205.5c0,113.49452 -89.76691,205.5 -200.5,205.5c-110.73308,0 -200.5,-92.00548 -200.5,-205.5z" id="svg_1"/>
 </g>
</svg>